<?xml version="1.0" standalone="no"?>
<!DOCTYPE svg PUBLIC "-//W3C//DTD SVG 20010904//EN"
 "http://www.w3.org/TR/2001/REC-SVG-20010904/DTD/svg10.dtd">
<svg version="1.0" xmlns="http://www.w3.org/2000/svg"
 width="512.000000pt" height="512.000000pt" viewBox="0 0 512.000000 512.000000"
 preserveAspectRatio="xMidYMid meet">

<g transform="translate(0.000000,512.000000) scale(0.100000,-0.100000)"
fill="#000000" stroke="none">
<path d="M2455 5064 c-226 -33 -355 -84 -512 -203 -237 -180 -381 -442 -400
-723 l-6 -98 1023 0 1023 0 -6 98 c-28 431 -365 816 -793 907 -70 15 -275 27
-329 19z"/>
<path d="M435 4231 c-107 -49 -154 -163 -110 -269 10 -24 116 -137 305 -327
l290 -291 0 -466 0 -467 -382 -3 -383 -3 -45 -25 c-60 -34 -101 -95 -108 -159
-6 -68 31 -147 90 -187 l41 -29 392 -3 391 -3 12 -157 c19 -259 58 -442 133
-617 22 -49 39 -95 39 -101 0 -6 -150 -180 -333 -387 -362 -407 -367 -414
-353 -510 24 -158 213 -229 331 -125 20 16 164 176 321 354 l286 324 47 -41
c73 -65 246 -176 366 -235 173 -84 396 -144 543 -144 l52 0 0 1435 0 1435 200
0 200 0 0 -1435 0 -1435 44 0 c131 0 368 59 519 129 103 47 225 119 333 197
l77 55 336 -334 c353 -353 359 -357 446 -357 97 1 195 105 195 207 -1 78 -26
109 -381 467 l-342 346 47 100 c91 197 139 398 159 672 l11 157 391 3 392 3
41 29 c59 40 96 119 90 187 -7 64 -48 125 -108 159 l-45 25 -382 3 -383 3 0
467 0 466 290 291 c189 190 295 303 305 327 17 43 20 114 4 155 -25 68 -119
132 -192 133 -75 0 -103 -22 -402 -320 l-290 -290 -1355 0 -1355 0 -290 290
c-192 191 -303 294 -327 305 -49 20 -104 19 -153 -4z"/>
</g>
</svg>
